<svg width="13" height="8" viewBox="0 0 13 8" fill="none" xmlns="http://www.w3.org/2000/svg">
<path id="Vector" d="M0.275144 0.767679C0.451372 0.596284 0.690357 0.5 0.939543 0.5C1.18873 0.5 1.42771 0.596284 1.60394 0.767679L6.25567 5.2932L10.9074 0.767679C11.0846 0.601142 11.322 0.50899 11.5684 0.511073C11.8148 0.513157 12.0505 0.609307 12.2248 0.778816C12.399 0.948325 12.4978 1.17763 12.5 1.41734C12.5021 1.65705 12.4074 1.888 12.2362 2.06042L6.92007 7.23232C6.74384 7.40372 6.50486 7.5 6.25567 7.5C6.00649 7.5 5.7675 7.40372 5.59127 7.23232L0.275144 2.06042C0.0989695 1.88898 0 1.65648 0 1.41405C0 1.17163 0.0989695 0.939126 0.275144 0.767679Z" fill="black"/>
</svg>
