<svg width="40" height="40" viewBox="0 0 40 40" fill="none" xmlns="http://www.w3.org/2000/svg">
<path id="Vector" d="M0 40V35.5706C0 35.5706 10 31.1411 20 31.1411C30 31.1411 40 35.5706 40 35.5706V40H0ZM18.6 11.4301C16.2 2.79269 4 4.78594 4 4.78594C4 4.78594 4.4 22.0608 15.8 19.4031C15 12.9804 12 11.2086 12 11.2086C17.6 11.2086 18 18.7387 18 18.7387V28.9264H22V19.6246C22 19.6246 22 10.9872 28 8.77244C28 8.77244 24 15.4166 24 19.846C38 21.3963 38 0.135023 38 0.135023C38 0.135023 20.2 -2.0797 18.6 11.4301Z" fill="#5DB075"/>
</svg>
