<svg width="40" height="40" viewBox="0 0 40 40" fill="none" xmlns="http://www.w3.org/2000/svg">
<path id="Vector" d="M28.5714 0C25.1429 0 22.0952 1.78771 20 4.69274C17.9048 1.78771 14.6667 0 11.2381 0C5.14286 0 0 6.03352 0 13.1844C0 13.6313 0 14.0782 0 14.5251C0.761905 25.4749 10.6667 34.6369 16.5714 38.8827C17.5238 39.5531 18.6667 40 20 40C21.1429 40 22.2857 39.5531 23.4286 38.8827C29.3333 34.4134 39.2381 25.4749 40 14.5251C40 14.0782 40 13.6313 40 13.1844C40 6.03352 34.8571 0 28.5714 0Z" fill="#FF0000"/>
</svg>
