<svg width="32" height="31" viewBox="0 0 32 31" fill="none" xmlns="http://www.w3.org/2000/svg">
<g id="heroicons:home-16-solid" clip-path="url(#clip0_98_207)">
<path id="Vector" d="M17.4014 0.599652C17.2205 0.410134 17.003 0.259279 16.7622 0.15621C16.5213 0.0531411 16.262 0 16 0C15.738 0 15.4787 0.0531411 15.2378 0.15621C14.997 0.259279 14.7795 0.410134 14.5986 0.599652L1.03634 14.8078C0.77436 15.0822 0.598662 15.4273 0.531039 15.8006C0.463415 16.1738 0.50684 16.5587 0.655928 16.9075C0.805017 17.2563 1.05321 17.5537 1.36973 17.7627C1.68625 17.9717 2.05716 18.0833 2.43648 18.0835H5.66558V28.4167C5.66558 29.1018 5.93775 29.7589 6.42221 30.2434C6.90667 30.7278 7.56373 31 8.24886 31H10.8321C11.5173 31 12.1743 30.7278 12.6588 30.2434C13.1433 29.7589 13.4154 29.1018 13.4154 28.4167V25.8334C13.4154 25.1483 13.6876 24.4912 14.1721 24.0067C14.6565 23.5223 15.3136 23.2501 15.9987 23.2501C16.6838 23.2501 17.3409 23.5223 17.8254 24.0067C18.3098 24.4912 18.582 25.1483 18.582 25.8334V28.4167C18.582 29.1018 18.8542 29.7589 19.3386 30.2434C19.8231 30.7278 20.4801 31 21.1653 31H23.7486C24.4337 31 25.0907 30.7278 25.5752 30.2434C26.0597 29.7589 26.3318 29.1018 26.3318 28.4167V18.0835H29.5609C29.9405 18.0838 30.3117 17.9726 30.6287 17.7638C30.9456 17.5549 31.1942 17.2576 31.3436 16.9087C31.493 16.5598 31.5366 16.1747 31.4691 15.8012C31.4015 15.4277 31.2258 15.0823 30.9637 14.8078L17.4014 0.599652Z" fill="#D4D6DD"/>
</g>
<defs>
<clipPath id="clip0_98_207">
<rect width="31" height="31" fill="white" transform="translate(0.5)"/>
</clipPath>
</defs>
</svg>
