<svg width="28" height="29" viewBox="0 0 28 29" fill="none" xmlns="http://www.w3.org/2000/svg">
<g id="Group">
<path id="Vector" d="M3.825 7.9C5.79942 7.9 7.4 6.29942 7.4 4.325C7.4 2.35058 5.79942 0.75 3.825 0.75C1.85058 0.75 0.25 2.35058 0.25 4.325C0.25 6.29942 1.85058 7.9 3.825 7.9Z" fill="#D4D6DD"/>
<path id="Vector_2" d="M3.825 18.075C5.79942 18.075 7.4 16.4744 7.4 14.5C7.4 12.5256 5.79942 10.925 3.825 10.925C1.85058 10.925 0.25 12.5256 0.25 14.5C0.25 16.4744 1.85058 18.075 3.825 18.075Z" fill="#D4D6DD"/>
<path id="Vector_3" d="M3.825 28.25C5.79942 28.25 7.4 26.6494 7.4 24.675C7.4 22.7006 5.79942 21.1 3.825 21.1C1.85058 21.1 0.25 22.7006 0.25 24.675C0.25 26.6494 1.85058 28.25 3.825 28.25Z" fill="#D4D6DD"/>
<path id="Vector_4" d="M11.8 6.93749H25.275C26.65 6.93749 27.8875 5.83749 27.8875 4.32499C27.8875 2.94999 26.7875 1.71249 25.275 1.71249H11.8C10.425 1.71249 9.1875 2.81249 9.1875 4.32499C9.1875 5.69999 10.2875 6.93749 11.8 6.93749Z" fill="#D4D6DD"/>
<path id="Vector_5" d="M25.1375 11.8875H11.8C10.425 11.8875 9.1875 12.9875 9.1875 14.5C9.1875 15.875 10.2875 17.1125 11.8 17.1125H25.275C26.65 17.1125 27.8875 16.0125 27.8875 14.5C27.75 13.125 26.65 11.8875 25.1375 11.8875Z" fill="#D4D6DD"/>
<path id="Vector_6" d="M25.1375 22.0625H11.8C10.425 22.0625 9.1875 23.1625 9.1875 24.675C9.1875 26.05 10.2875 27.2875 11.8 27.2875H25.275C26.65 27.2875 27.8875 26.1875 27.8875 24.675C27.75 23.1625 26.65 22.0625 25.1375 22.0625Z" fill="#D4D6DD"/>
</g>
</svg>
