<svg width="41" height="40" viewBox="0 0 41 40" fill="none" xmlns="http://www.w3.org/2000/svg">
<path id="Vector" d="M15.4651 19.1052H19.3201C20.37 19.1052 21.4095 19.3611 22.3794 19.8585C23.3494 20.3558 24.2306 21.0848 24.973 22.0038C25.7153 22.9228 26.3042 24.0137 26.7059 25.2144C27.1077 26.4151 27.3145 27.702 27.3145 29.0017H14.8771V31.2009H29.0892V29.0017C29.0841 26.6618 28.5386 24.3726 27.517 22.404H32.644C34.3235 22.4036 35.9686 22.9927 37.3886 24.1028C38.8086 25.213 39.9453 26.7987 40.6667 28.6762C36.4653 35.5378 29.663 40 21.9849 40C17.08 40 12.9247 38.7025 9.54932 36.4263V15.9647C11.7105 16.3473 13.7514 17.4308 15.4651 19.1052ZM5.99629 13.6071C6.43169 13.6072 6.85189 13.8053 7.1771 14.1637C7.5023 14.5221 7.70986 15.0158 7.76037 15.5512L7.77281 15.8063V35.5993C7.77281 36.1826 7.58564 36.742 7.25248 37.1544C6.91932 37.5669 6.46745 37.7986 5.99629 37.7986H2.44326C1.9721 37.7986 1.52024 37.5669 1.18708 37.1544C0.853916 36.742 0.666748 36.1826 0.666748 35.5993V15.8063C0.666748 15.223 0.853916 14.6637 1.18708 14.2512C1.52024 13.8388 1.9721 13.6071 2.44326 13.6071H5.99629ZM23.1325 1.67849L23.7614 2.45702L24.3885 1.67849C25.2216 0.647271 26.3514 0.0679361 27.5294 0.0679361C28.7075 0.0679361 29.8373 0.647271 30.6703 1.67849C31.5033 2.70972 31.9713 4.10836 31.9713 5.56672C31.9713 7.02509 31.5033 8.42373 30.6703 9.45495L23.7597 18.0077L16.8526 9.45275C16.4284 8.94558 16.09 8.33889 15.8573 7.66811C15.6245 6.99732 15.502 6.27587 15.4969 5.54584C15.4917 4.81581 15.6041 4.09183 15.8274 3.41613C16.0507 2.74044 16.3805 2.12657 16.7975 1.61035C17.2145 1.09412 17.7104 0.685869 18.2562 0.409422C18.802 0.132974 19.3869 -0.00613617 19.9766 0.000207589C20.5663 0.00655134 21.1491 0.158222 21.6909 0.44637C22.2328 0.734518 22.7229 1.15337 23.1325 1.67849Z" fill="#FFB636"/>
</svg>
