<svg width="32" height="31" viewBox="0 0 32 31" fill="none" xmlns="http://www.w3.org/2000/svg">
<g id="material-symbols:trophy" clip-path="url(#clip0_98_209)">
<path id="Vector" d="M7.38889 31V27.5556H14.2778V22.2167C12.8713 21.9009 11.6158 21.3056 10.5113 20.4307C9.40676 19.5558 8.59559 18.4576 8.07778 17.1361C5.925 16.8778 4.12413 15.938 2.67517 14.3168C1.2262 12.6956 0.501148 10.7937 0.5 8.61111V6.88889C0.5 5.94167 0.837556 5.13107 1.51267 4.45711C2.18778 3.78315 2.99837 3.44559 3.94444 3.44444H7.38889V0H24.6111V3.44444H28.0556C29.0028 3.44444 29.8139 3.782 30.4891 4.45711C31.1642 5.13222 31.5011 5.94281 31.5 6.88889V8.61111C31.5 10.7926 30.7749 12.6945 29.3248 14.3168C27.8747 15.9392 26.0739 16.8789 23.9222 17.1361C23.4056 18.4565 22.595 19.5547 21.4904 20.4307C20.3859 21.3068 19.1299 21.9021 17.7222 22.2167V27.5556H24.6111V31H7.38889ZM7.38889 13.4333V6.88889H3.94444V8.61111C3.94444 9.70185 4.26019 10.6852 4.89167 11.5613C5.52315 12.4373 6.35556 13.0613 7.38889 13.4333ZM24.6111 13.4333C25.6444 13.0602 26.4769 12.4356 27.1083 11.5596C27.7398 10.6835 28.0556 9.7007 28.0556 8.61111V6.88889H24.6111V13.4333Z" fill="#D4D6DD"/>
</g>
<defs>
<clipPath id="clip0_98_209">
<rect width="31" height="31" fill="white" transform="translate(0.5)"/>
</clipPath>
</defs>
</svg>
