<svg width="20" height="20" viewBox="0 0 20 20" fill="none" xmlns="http://www.w3.org/2000/svg">
<g id="rate_solid">
<path id="Vector" d="M18.19 7.87319C17.9624 7.1163 17.2795 6.5108 16.5207 6.43511L13.3339 5.98098L11.8922 2.95345C11.5128 2.12088 10.8299 1.66675 9.99529 1.66675C9.16063 1.66675 8.47774 2.12088 8.09835 2.87776L6.65668 5.90529L3.46984 6.43511C2.71107 6.58649 2.02817 7.1163 1.80054 7.87319C1.49703 8.70576 1.72466 9.53833 2.33168 10.1438L4.68387 12.4902L4.15273 15.8205C4.00098 16.653 4.38037 17.4856 5.06326 17.9397C5.44265 18.1668 5.82203 18.3182 6.2773 18.3182C6.65668 18.3182 6.96019 18.2425 7.2637 18.0911L10.147 16.5017L13.0304 18.0911C13.7133 18.4695 14.5479 18.3939 15.2308 17.9397C15.9137 17.4856 16.2931 16.653 16.1413 15.8205L15.6102 12.4902L17.9624 10.1438C18.2659 9.53833 18.4935 8.63007 18.19 7.87319Z" fill="#FFB636"/>
</g>
</svg>
