<svg width="41" height="40" viewBox="0 0 41 40" fill="none" xmlns="http://www.w3.org/2000/svg">
<g id="Group">
<path id="Vector" d="M25.1014 0.025588C22.8324 0.294043 21.0675 1.91959 20.7821 4.00613C20.7457 4.27644 20.7497 4.86704 20.7922 5.1355C21.0209 6.62033 21.9904 7.87744 23.4356 8.56617C25.5871 9.59185 28.2204 9.04198 29.6919 7.26277C30.5905 6.17414 30.8942 4.78558 30.5319 3.43219C30.4347 3.07117 30.2627 2.66941 30.0623 2.34171C29.285 1.06608 27.9067 0.21073 26.334 0.0274391C26.0304 -0.00773811 25.3989 -0.0095892 25.1014 0.025588Z" fill="#599BE8"/>
<path id="Vector_2" d="M13.285 6.04257C11.8358 6.20365 10.5121 6.95347 9.69642 8.06987C8.58522 9.59174 8.57106 11.5857 9.65796 13.1131C10.17 13.8333 10.8542 14.3906 11.684 14.7609C12.1698 14.9794 12.6454 15.1145 13.1838 15.1904C13.5158 15.2367 14.2586 15.2386 14.5925 15.1923C15.7948 15.0275 16.8999 14.4795 17.6751 13.663C18.3491 12.9521 18.758 12.1356 18.8936 11.2265C18.9422 10.9044 18.9422 10.3305 18.8936 10.0231C18.7661 9.21035 18.4402 8.48089 17.918 7.8477C17.0882 6.84239 15.8414 6.18884 14.4731 6.04257C14.1614 6.00925 13.5906 6.00925 13.285 6.04257Z" fill="#599BE8"/>
<path id="Vector_3" d="M32.6976 6.31276C32.6915 6.32758 32.6672 6.40163 32.6429 6.47754C32.6186 6.55345 32.5599 6.71452 32.5114 6.83301C31.7402 8.73071 30.0845 10.1952 27.9957 10.8265C27.5727 10.9543 26.7328 11.1246 26.5283 11.1246C26.4959 11.1246 26.4717 11.1283 26.4717 11.1339C26.4717 11.1394 26.583 11.3431 26.7206 11.5837C27.0951 12.2428 27.0951 12.241 27.1335 12.5113C27.1598 12.6909 27.1679 12.8797 27.1679 13.3278C27.1679 13.8388 27.1618 13.9443 27.1214 14.1794C27.0262 14.7404 26.8825 15.1829 26.6518 15.6235C26.4028 16.0956 26.1255 16.4567 25.743 16.8103C25.3807 17.1435 25.1257 17.3194 24.6844 17.5342C24.1703 17.7841 23.9416 17.9767 23.6704 18.3858L23.638 18.4377H22.2941C20.8428 18.4377 20.7963 18.4395 20.5129 18.5377C19.9887 18.7191 19.5778 19.1616 19.4685 19.667C19.4483 19.7596 19.2418 21.1 19.0111 22.646C18.669 24.9269 18.5941 25.4601 18.6164 25.4712C18.6306 25.4805 18.7135 25.4971 18.7986 25.5101C19.6831 25.6378 20.8428 26.0248 21.6788 26.4691L21.8528 26.5617L21.865 26.5043C21.8751 26.4469 22.6058 21.574 22.6058 21.5573C22.6058 21.5536 23.4093 21.5462 24.393 21.5444C26.1438 21.537 26.1802 21.537 26.332 21.4981C26.8562 21.3629 27.257 21.0519 27.4796 20.6057C27.5282 20.5076 27.5565 20.4816 27.7367 20.3595C28.2123 20.0373 28.7689 19.5615 29.1515 19.1523L29.3559 18.932L29.3721 19.0875C29.3802 19.1727 29.3903 19.6263 29.3944 20.0947C29.3984 20.8019 29.4045 20.9741 29.4348 21.113C29.4854 21.3574 29.5785 21.6517 29.6818 21.8832C29.7303 21.9961 29.7708 22.1035 29.7708 22.1239C29.7708 22.1424 29.1333 25.3268 28.352 29.1981C27.0161 35.8262 26.9331 36.2539 26.923 36.4983C26.9068 36.8889 26.9777 37.1944 27.1598 37.5258C27.3298 37.8331 27.6274 38.146 27.9249 38.3275C29.2365 39.1291 31.0035 38.5663 31.469 37.2018C31.5115 37.074 31.8576 35.393 32.5741 31.8364C33.1469 28.9871 33.6165 26.6469 33.6165 26.6358C33.6165 26.6246 33.6205 26.6191 33.6266 26.6228C33.6306 26.6284 34.1043 28.9648 34.6791 31.8142C35.2519 34.6653 35.7437 37.0722 35.7721 37.1629C36.0332 37.9998 36.8509 38.6163 37.8022 38.6885C39.0024 38.7829 40.0569 38.0627 40.2958 36.9889C40.3322 36.8241 40.3383 36.75 40.3302 36.5075C40.3221 36.2224 40.312 36.1761 38.8223 28.7945L37.3245 21.3685L37.363 21.1963C37.4338 20.8834 37.45 20.6205 37.45 19.7985C37.452 19.0209 37.4358 18.6987 37.369 18.0952C37.0897 15.5217 36.2558 12.8612 34.8147 9.93969C34.5415 9.38241 33.8351 8.09197 33.5031 7.5421C33.24 7.10332 32.7563 6.33313 32.7239 6.3035C32.7138 6.2924 32.7036 6.2961 32.6976 6.31276Z" fill="#599BE8"/>
<path id="Vector_4" d="M17.9605 15.6644C17.6063 15.9144 16.8918 16.2791 16.4121 16.4531C15.5742 16.7586 14.8091 16.8901 13.8922 16.8901C13.198 16.8901 12.6738 16.8253 12.0301 16.6605C11.3723 16.4902 10.5667 16.1421 10.0081 15.7829C9.91905 15.7255 9.84214 15.6829 9.83809 15.6866C9.83404 15.6903 9.85024 16.0014 9.8725 16.3772C9.94132 17.5029 9.99394 18.6082 10.0405 19.9375C10.0729 20.8743 10.0729 23.2015 10.0405 23.7144C10.0162 24.0884 9.97977 24.5142 9.96966 24.5216C9.96763 24.5234 8.81798 24.6679 7.41533 24.8419C4.65658 25.1863 4.55538 25.1992 4.33071 25.2548C3.31869 25.5066 2.49087 26.286 2.24394 27.2191C2.20345 27.3709 1.28859 33.3658 1.25014 33.7287C1.22787 33.9398 1.25014 34.26 1.30276 34.4915C1.47278 35.245 2.01522 35.9208 2.76006 36.3114C3.48264 36.6873 4.42381 36.7595 5.21926 36.4984C5.57751 36.3799 5.98839 36.1429 6.26366 35.8967C6.34664 35.8226 6.41344 35.7689 6.41344 35.7782C6.41344 35.7875 6.36688 36.08 6.30819 36.4281L6.20294 37.0631H3.79232C1.1206 37.0631 1.23192 37.0594 0.950581 37.1853C0.847355 37.2316 0.758298 37.2908 0.667217 37.376C0.438501 37.5852 0.333252 37.8185 0.333252 38.1184C0.333252 38.3517 0.387901 38.5146 0.529583 38.7071C0.717817 38.9589 1.00523 39.12 1.34122 39.157C1.44444 39.1681 2.61028 39.1737 4.45013 39.17C7.24531 39.1644 7.40116 39.1626 7.50641 39.1293C7.88693 39.0126 8.17636 38.7479 8.28364 38.4183C8.29983 38.3646 8.4071 37.7759 8.51843 37.1112L8.72083 35.9023L8.63987 35.6171C8.2553 34.2619 8.23506 32.9641 8.57915 31.6477C8.73905 31.0386 8.91716 30.5813 9.21469 30.0185C9.63164 29.2297 10.0405 28.6743 10.6578 28.056C12.018 26.6933 13.7627 25.8102 15.724 25.4954C16.2786 25.4047 16.4931 25.3899 17.2015 25.3899C17.5739 25.3899 17.9403 25.3955 18.0131 25.4047L18.1488 25.4177L18.1609 25.3399C18.1811 25.2122 18.2317 24.6031 18.254 24.2198C18.3451 22.6794 18.3127 20.0041 18.173 17.2992C18.0961 15.8348 18.0799 15.6052 18.0557 15.6052C18.0476 15.6052 18.0051 15.6329 17.9605 15.6644Z" fill="#599BE8"/>
<path id="Vector_5" d="M16.9585 27.0413C14.9203 27.1228 13.0724 27.9689 11.7567 29.426C10.8763 30.3998 10.3278 31.618 10.1861 32.9214C10.1456 33.2843 10.1578 33.9897 10.2084 34.3322C10.429 35.8245 11.1475 37.1353 12.3073 38.1646C13.2586 39.0089 14.4123 39.5828 15.6834 39.842C17.0597 40.1253 18.5251 40.0253 19.8164 39.5606C22.1157 38.733 23.8058 36.8446 24.2227 34.6377C24.3017 34.2156 24.3158 34.0434 24.3158 33.5083C24.3158 32.9418 24.2936 32.7122 24.1924 32.2494C23.9009 30.9182 23.1196 29.6518 22.0307 28.752C20.962 27.8671 19.7618 27.3357 18.345 27.1209C18.009 27.071 17.4038 27.0247 17.1811 27.0321C17.1305 27.0339 17.0314 27.0376 16.9585 27.0413Z" fill="#599BE8"/>
</g>
</svg>
