<svg width="16" height="20" viewBox="0 0 16 20" fill="none" xmlns="http://www.w3.org/2000/svg">
<g id="Group">
<path id="Vector" d="M3.5443 20C3.03797 20 2.43038 19.8999 1.92405 19.5997C0.708861 18.9993 0 17.8985 0 16.5976V3.38813C0 2.08721 0.708861 0.986419 1.92405 0.38599C3.13924 -0.214439 4.65823 -0.114367 5.77215 0.686204L14.5823 7.29092C15.4937 7.99142 16 8.89207 16 9.99285C16 11.0936 15.4937 12.0944 14.5823 12.6948L5.77215 19.2995C5.16456 19.7999 4.35443 20 3.5443 20ZM3.5443 1.98713C3.34177 1.98713 3.03797 2.08721 2.83544 2.18728C2.32911 2.38742 2.02532 2.88778 2.02532 3.38813V16.4975C2.02532 16.9979 2.32911 17.4982 2.83544 17.7984C3.24051 17.9986 3.94937 18.0986 4.55696 17.5983L13.3671 10.9936C13.7722 10.6934 13.9747 10.2931 13.9747 9.89278C13.9747 9.49249 13.7722 9.09221 13.3671 8.79199L4.55696 2.28735C4.25316 2.0872 3.94937 1.98713 3.5443 1.98713Z" fill="white"/>
</g>
</svg>
