<svg width="15" height="24" viewBox="0 0 15 24" fill="none" xmlns="http://www.w3.org/2000/svg">
<path id="Vector" d="M13.6872 0.873582C14.0152 1.20176 14.1995 1.64679 14.1995 2.11083C14.1995 2.57487 14.0152 3.01991 13.6872 3.34808L5.02466 12.0106L13.6872 20.6731C14.0059 21.0031 14.1823 21.4452 14.1783 21.904C14.1744 22.3629 13.9903 22.8018 13.6658 23.1263C13.3414 23.4507 12.9025 23.6348 12.4436 23.6388C11.9848 23.6427 11.5427 23.4664 11.2127 23.1476L1.31291 13.2478C0.984839 12.9197 0.800537 12.4746 0.800537 12.0106C0.800537 11.5465 0.984839 11.1015 1.31291 10.7733L11.2127 0.873582C11.5408 0.545508 11.9859 0.361206 12.4499 0.361206C12.914 0.361206 13.359 0.545508 13.6872 0.873582Z" fill="#5CC6BA"/>
</svg>
