<svg width="32" height="31" viewBox="0 0 32 31" fill="none" xmlns="http://www.w3.org/2000/svg">
<g id="f7:square-stack-fill">
<path id="Vector" d="M9.82434 2.01333H21.89C21.8125 0.910611 21.1897 0.339325 19.9962 0.339325H11.7314C10.5379 0.339325 9.90184 0.910611 9.82434 2.01333ZM7.52757 5.60711H24.096C23.9011 4.42634 23.3431 3.77756 22.0461 3.77756H9.57745C8.28043 3.77756 7.72243 4.42634 7.52757 5.60711ZM8.5788 30.6607H23.8103C26.1464 30.6607 27.4954 29.311 27.4954 26.6384V11.692C27.4954 9.01933 26.1331 7.67027 23.4212 7.67027H8.5788C5.88014 7.67027 4.50452 9.01933 4.50452 11.692V26.6384C4.50452 29.3243 5.88014 30.6607 8.5788 30.6607Z" fill="#D4D6DD"/>
</g>
</svg>
