<svg width="34" height="33" viewBox="0 0 34 33" fill="none" xmlns="http://www.w3.org/2000/svg">
<g id="User_solid">
<path id="Vector" d="M28.9625 23.5125C27.5875 20.2125 24.975 17.7375 21.8125 16.5C23.6 15.125 24.7 12.925 24.7 10.5875C24.7 6.1875 21.2625 2.75 17 2.75C12.7375 2.75 9.30002 6.1875 9.30002 10.45C9.30002 12.7875 10.4 14.9875 12.1875 16.3625C9.02502 17.6 6.41252 20.075 5.03752 23.375C4.48752 24.75 4.62502 26.4 5.45002 27.6375C6.27502 29.0125 7.78752 29.7 9.43752 29.7H24.7C26.35 29.7 27.725 28.875 28.6875 27.6375C29.5125 26.4 29.65 24.8875 28.9625 23.5125Z" fill="#D4D6DD"/>
</g>
</svg>
